<?xml version="1.0" standalone="no"?>
<!DOCTYPE svg PUBLIC "-//W3C//DTD SVG 20010904//EN" "http://www.w3.org/TR/2001/REC-SVG-20010904/DTD/svg10.dtd">
<!-- Created using Krita: https://krita.org -->
<svg xmlns="http://www.w3.org/2000/svg" 
    xmlns:xlink="http://www.w3.org/1999/xlink"
    xmlns:krita="http://krita.org/namespaces/svg/krita"
    xmlns:sodipodi="http://sodipodi.sourceforge.net/DTD/sodipodi-0.dtd"
    width="576pt"
    height="576pt"
    viewBox="0 0 576 576">
<defs/>
<rect id="shape0" fill="#199789" fill-rule="evenodd" width="576" height="576"/><path id="shape0" transform="translate(32.4365742325888, 199.671032817235)" fill="#000000" stroke="#000000" stroke-width="4.8" stroke-linecap="square" stroke-linejoin="bevel" d="M354.019 24.7011C361.063 40.0637 361.887 66.9175 362.056 77.6127C362.226 88.3079 356.677 130.92 354.689 143.92C352.701 156.919 349.165 182.429 349.331 196.831C349.497 211.233 354.502 228.092 356.029 232.999C357.555 237.906 360.718 257.78 361.387 271.175C362.056 284.571 365.124 322.059 347.991 337.482C330.859 352.906 321.081 359.696 292.401 360.924C263.72 362.153 236.38 340.305 217.387 317.389C198.394 294.474 184.698 273.855 171.173 261.799C157.647 249.742 132.938 248.17 102.856 239.696C72.7747 231.223 63.3778 228.07 46.0435 221.529C28.7091 214.988 -3.8899 187.563 0.38203 149.948C4.65395 112.333 14.4974 108.506 23.0035 99.1289C31.5095 89.7522 61.4481 74.3475 78.4435 70.3289C95.4388 66.3103 114.243 68.2359 143.712 58.8591C173.182 49.4824 217.387 20.6825 228.773 15.9941C240.159 11.3057 264.405 4.17271 283.024 1.92897C301.643 -0.314772 303.018 -0.951574 323.88 1.92897C338.301 5.95367 346.071 11.5964 354.019 24.7011Z" sodipodi:nodetypes="czzzzzzzzzzzzzzzzzcc"/><ellipse id="shape01" transform="matrix(0.984847119582615 0.173424661248877 -0.173424661248877 0.984847119582615 272.879991867543 12.2399996352196)" rx="59.799679376867" ry="76.3896229759194" cx="59.799679376867" cy="76.3896229759194" fill="#000000" stroke="#000000" stroke-width="4.8" stroke-linecap="square" stroke-linejoin="bevel"/><ellipse id="shape011" transform="matrix(0.373433961045599 0.927656746225258 -0.927656746225258 0.373433961045599 530.304631382717 278.130861332361)" rx="54" ry="71.28" cx="54" cy="71.28" fill="#000000" stroke="#000000" stroke-width="4.8" stroke-linecap="square" stroke-linejoin="bevel"/><ellipse id="shape02" transform="matrix(0.99529296625068 -0.0969114546050727 0.0969114546050727 0.99529296625068 104.444728208715 94.3035748786613)" rx="54" ry="71.28" cx="54" cy="71.28" fill="#000000" stroke="#000000" stroke-width="4.8" stroke-linecap="square" stroke-linejoin="bevel"/><ellipse id="shape03" transform="matrix(0.533459358503643 0.845825649526519 -0.845825649526519 0.533459358503643 504.519285483438 82.3485902512838)" rx="59.799679376867" ry="76.3896229759194" cx="59.799679376867" cy="76.3896229759194" fill="#000000" stroke="#000000" stroke-width="4.8" stroke-linecap="square" stroke-linejoin="bevel"/><path id="shape01" transform="translate(197.265307115703, 246.96)" fill="#ffffff" stroke="#ffffff" stroke-width="1.68" stroke-linecap="square" stroke-linejoin="bevel" d="M16.8147 64.32C15.2727 68.0412 13.5075 74.56 12.0147 81.6C11.7748 90.0867 11.2646 96.1113 11.7747 103.44C12.8534 113.508 10.8707 116.658 9.61469 122.64C8.2484 129.969 8.08558 132.856 5.60029 136.347C2.30115 142.288 0.530649 145.753 0 149.923C1.93627 156.239 0.478424 154.367 2.41469 155.76C2.52017 157.68 4.39621 157.2 5.77469 159.12L9.13469 162.24L10.6915 166.554C13.2515 166.874 16.9561 169.289 19.5161 169.609L23.2497 171.136C25.1116 176.248 30.1037 177.968 34.2805 178.094C40.7614 178.073 35.2341 179.021 42.4947 176.88C49.0007 175.901 48.6043 176.679 53.899 177.474C62.2067 182.331 62.7161 186.428 63.1347 190.32C61.8982 196.44 64.0274 194.427 56.6143 206.663C50.0854 218.554 50.0311 230.345 50.1655 235.513C51.2629 241.996 54.375 249.112 56.7747 253.44C60.0218 260.023 62.9173 266.235 63.6147 268.92C68.9569 281.101 68.0565 283.057 70.1908 289.479C72.7441 293.442 78.0295 295.928 81.7307 299.322C87.7884 303.601 92.87 305.927 98.8944 309.12C104.948 311.673 108.374 312.684 115.842 314.257C125.326 315.223 127.34 314.769 135.375 314.4C146.108 313.654 156.966 310.531 163.016 307.027C170.056 303.097 173.904 299.995 177.368 296.903C183.587 292.046 188.833 286.824 190.767 282.182C193.102 277.669 194.541 273.883 195.603 268.945C197.858 261.617 197.497 256.866 198.255 250.8C198.731 243.739 198.351 234.5 197.933 227.216C197.745 219.749 196.922 211.273 195.603 204.033C195.011 198.374 194.238 192.716 192.805 187.057C191.892 183.898 191.033 179.752 189.918 176.795L187.797 167.207C186.352 160.291 186.016 154.927 185.675 149.557L175.695 138C173.216 133.921 173.584 134.387 167.295 123.84C162.227 115.063 162.513 114.932 159.615 110.16C157.644 105.571 154.921 103.097 150.015 90.24C145.886 81.4143 148.393 84.8131 142.575 70.44C137.496 60.3212 136.757 59.7025 129.615 50.16C124.723 45.586 121.793 42.2367 118.815 41.04L104.775 35.16C101.199 32.8082 98.8162 29.8593 96.4947 26.88C92.494 21.7766 82.2539 3.45424 60.7347 0C57.2147 7.24073 56.8147 7.99958 56.1747 14.88C55.4254 20.9386 55.8244 25.9006 55.6947 30.72L55.0947 38.04L50.8947 31.2C49.6905 29.5768 48.1553 27.93 38.1747 25.68C28.9956 21.7095 19.0513 17.0344 5.77469 19.2C16.4878 31.6506 12.176 26.4844 16.8147 33.6C19.5347 39.9244 22.2547 43.0141 24.9747 44.88C26.9746 48.105 25.7083 49.9622 24.2679 52.6819C21.1271 56.7025 19.3627 58.6618 16.8147 64.32Z" sodipodi:nodetypes="cccccccccccccccccccccccccccccccccccccccccccccccccccccccc"/>
</svg>
